# xmcd
#
# Track frame offsets: 
#        150
#        10935
#        21525
#        34212
#        45766
#        53392
#        66428
#        79297
#        87713
#        103908
#        111673
#        124946
#        135174
#        142761
#        152488
#        158804
#        165955
#        171897
#        180292
#        195604
#        215196
#        228140
#        236372
#        253411
#        262916
#        274282
#        287360
#
# Disc length: 3964 seconds
#
# Revision: 0
# Processed by: cddbd v1.5.2PL0 Copyright (c) Steve Scherf et al.
# Submitted via: ExactAudioCopy v0.99pb1
#
DISCID=720f7a1b
DTITLE=Various Artist - The George Mitchell Collection, Volumes 1-7 - Disc 2
DYEAR=2008
DGENRE=Blues
TTITLE0=Lonzie Thomas - Rabbit On A Log
TTITLE1=Lonzie Thomas - Raise A Ruckus Tonight
TTITLE2=Lonzie Thomas - My Three Women
TTITLE3=Lonzie Thomas - Red Cross Store
TTITLE4=Sleepy John Estes - Rats In The Kitchen
TTITLE5=Sleepy John Estes - Special Agent
TTITLE6=Sleepy John Estes - Trying To See
TTITLE7=Sleepy John Estes - Mail Man Blues
TTITLE8=Teddy Williams - Down Home Blues
TTITLE9=Teddy Williams - Catfish Blues
TTITLE10=Teddy Williams - Black Mattie
TTITLE11=Teddy Williams - Sun Don't Shine
TTITLE12=Green Paschal - Trouble Brought Me Down
TTITLE13=Green Paschal - My Lord
TTITLE14=Green Paschal - Mother Is Dead
TTITLE15=Green Paschal - Lay My Burden Down
TTITLE16=Green Paschal - Your Close Friend
TTITLE17=Green Paschal - I'm Gonna Leave You In The Hands of the Lord
TTITLE18=William "Do Boy" Diamond - Hard Time Blues
TTITLE19=William "Do Boy" Diamond - Just Want to Talk to You
TTITLE20=Dewey Corley and Walter Miller - Just A Dream I Got On My Mind
TTITLE21=Dewey Corley and Walter Miller - Memphis Is A Wonderful City
TTITLE22=Dewey Corley and Walter Miller - Down To Arkansas
TTITLE23=Bud Grant - Rock Me Mama
TTITLE24=Bud Grant - Freight Train Blues
TTITLE25=Bud Grant - So Sweet
TTITLE26=Bud Grant - Bud Grant's Grunt
EXTD=
EXTT0=
EXTT1=
EXTT2=
EXTT3=
EXTT4=
EXTT5=
EXTT6=
EXTT7=
EXTT8=
EXTT9=
EXTT10=
EXTT11=
EXTT12=
EXTT13=
EXTT14=
EXTT15=
EXTT16=
EXTT17=
EXTT18=
EXTT19=
EXTT20=
EXTT21=
EXTT22=
EXTT23=
EXTT24=
EXTT25=
EXTT26=
PLAYORDER=
